<svg xmlns="http://www.w3.org/2000/svg" viewBox="0 0 800 600" width="800" height="600">
    <defs>
        <linearGradient id="bgGradient" x1="0%" y1="0%" x2="100%" y2="100%">
            <stop offset="0%" style="stop-color:#8B5CF6"/>
            <stop offset="100%" style="stop-color:#EC4899"/>
        </linearGradient>
        <filter id="shadow" x="-20%" y="-20%" width="140%" height="140%">
            <feDropShadow dx="0" dy="4" stdDeviation="8" flood-color="#000000" flood-opacity="0.15"/>
        </filter>
    </defs>
    
    <!-- Background -->
    <rect width="800" height="600" fill="url(#bgGradient)"/>
    
    <!-- Decorative circles -->
    <circle cx="650" cy="100" r="120" fill="rgba(255,255,255,0.1)"/>
    <circle cx="100" cy="500" r="80" fill="rgba(255,255,255,0.1)"/>
    
    <!-- Browser mockup -->
    <g filter="url(#shadow)">
        <rect x="100" y="80" width="600" height="440" rx="12" fill="white"/>
        
        <!-- Browser header -->
        <rect x="100" y="80" width="600" height="36" rx="12" fill="#F3F4F6"/>
        <rect x="100" y="104" width="600" height="12" fill="#F3F4F6"/>
        <circle cx="124" cy="98" r="6" fill="#EF4444"/>
        <circle cx="144" cy="98" r="6" fill="#F59E0B"/>
        <circle cx="164" cy="98" r="6" fill="#22C55E"/>
        
        <!-- URL bar -->
        <rect x="200" y="88" width="400" height="20" rx="4" fill="#E5E7EB"/>
        <text x="400" y="102" font-family="Arial" font-size="10" fill="#9CA3AF" text-anchor="middle">myportfolio.fildevstudio.com</text>
    </g>
    
    <!-- Content area -->
    <g transform="translate(120, 140)">
        <!-- Nav bar mock -->
        <rect x="0" y="0" width="560" height="40" fill="#FFFFFF"/>
        <rect x="10" y="10" width="90" height="20" rx="4" fill="#8B5CF6" opacity="0.2"/>
        <text x="55" y="25" font-family="Arial" font-size="11" fill="#8B5CF6" text-anchor="middle">💼 Portfolio</text>
        
        <!-- Hero section -->
        <rect x="0" y="50" width="560" height="180" fill="#8B5CF6" opacity="0.1"/>
        <text x="280" y="120" font-family="Arial, sans-serif" font-size="48" fill="#8B5CF6" text-anchor="middle">💼</text>
        <text x="280" y="160" font-family="Arial, sans-serif" font-size="20" font-weight="bold" fill="#1F2937" text-anchor="middle">Freelancer Portfolio</text>
        <text x="280" y="185" font-family="Arial, sans-serif" font-size="12" fill="#6B7280" text-anchor="middle">Photographer • Designer • Tutor • Professional</text>
        
        <!-- Feature boxes -->
        <g transform="translate(30, 250)">
            <g transform="translate(0, 0)">
                <rect x="0" y="0" width="120" height="70" rx="8" fill="#8B5CF6" opacity="0.15"/>
                <text x="60" y="30" font-family="Arial" font-size="20" text-anchor="middle">🖼️</text>
                <text x="60" y="55" font-family="Arial" font-size="11" fill="#374151" text-anchor="middle" font-weight="bold">Work Samples</text>
            </g>
            <g transform="translate(140, 0)">
                <rect x="0" y="0" width="120" height="70" rx="8" fill="#EC4899" opacity="0.15"/>
                <text x="60" y="30" font-family="Arial" font-size="20" text-anchor="middle">⚡</text>
                <text x="60" y="55" font-family="Arial" font-size="11" fill="#374151" text-anchor="middle" font-weight="bold">Skills</text>
            </g>
            <g transform="translate(280, 0)">
                <rect x="0" y="0" width="120" height="70" rx="8" fill="#22C55E" opacity="0.15"/>
                <text x="60" y="30" font-family="Arial" font-size="20" text-anchor="middle">💰</text>
                <text x="60" y="55" font-family="Arial" font-size="11" fill="#374151" text-anchor="middle" font-weight="bold">Service Rates</text>
            </g>
            <g transform="translate(420, 0)">
                <rect x="0" y="0" width="120" height="70" rx="8" fill="#3B82F6" opacity="0.15"/>
                <text x="60" y="30" font-family="Arial" font-size="20" text-anchor="middle">📧</text>
                <text x="60" y="55" font-family="Arial" font-size="11" fill="#374151" text-anchor="middle" font-weight="bold">Contact</text>
            </g>
        </g>
    </g>
    
    <!-- Template label -->
    <rect x="30" y="540" width="220" height="40" rx="8" fill="white" opacity="0.95"/>
    <text x="140" y="565" font-family="Arial, sans-serif" font-size="14" font-weight="bold" fill="#8B5CF6" text-anchor="middle">💼 Freelancer Template</text>
</svg>
